<svg width="455" height="341" viewBox="0 0 455 341" fill="none" xmlns="http://www.w3.org/2000/svg">
<path fill-rule="evenodd" clip-rule="evenodd" d="M214.004 66.168C212.243 65.9798 211.992 68.3664 211.752 69.4544C211.073 69.0264 210.469 69.4356 210.316 68.4361C208.169 70.6838 206.449 73.2636 204.543 75.7054C202.715 78.0481 199.857 79.9114 198.275 82.3742C196.933 84.4649 199.148 87.6394 199.422 89.869C199.73 92.3816 199.074 95.2573 197.357 97.1728C196.553 98.0686 195.571 98.691 194.384 98.9316C193.203 99.1709 192.08 98.4788 191.04 98.6261C190.178 98.7483 190.14 99.3182 189.839 100.165C189.426 101.326 188.901 102.423 187.927 103.239C186.838 104.15 185.669 104.413 184.839 105.638C184.114 106.706 183.703 107.741 182.58 108.483C181.08 109.473 178.674 109.772 178.837 112.083C178.579 111.878 178.321 111.674 178.063 111.469C177.466 113.388 176.643 115.247 175.765 117.052C175.354 117.897 175.142 118.347 175.163 119.288C175.178 119.908 175.518 120.377 175.15 120.977C174.562 121.937 172.989 121.807 172.271 122.583C171.534 123.38 172.298 124.46 171.448 125.154C171.806 125.264 172.799 126.066 172.426 126.552C171.889 127.253 171.848 126.294 171.472 126.409C170.607 126.674 170.789 127.752 170.115 128.045C169.976 128.105 169.987 127.459 169.994 127.293L169.995 127.287L169.474 128.302C165.091 136.779 159.953 144.855 155.823 153.455L155.332 154.49C147.555 171.103 138.309 187.278 128.085 202.516C125.673 206.11 123.026 209.681 120.796 213.378C118.555 217.093 115.762 220.386 113.284 223.939C110.734 227.594 108.401 231.399 105.831 235.037C103.781 237.939 101.276 241.027 101.309 244.769C101.324 246.432 101.566 248.268 103.17 249.162C103.209 248.476 104.247 249.235 104.494 249.403C105.566 250.131 104.983 250.051 106.138 249.796C108.012 249.383 109.613 249.942 111.347 248.878C115.024 246.62 118.649 244.298 122.393 242.144C130.484 237.487 138.495 232.719 146.001 227.154C159.123 217.426 173.379 208.708 185.438 197.642C197.488 186.584 210.134 175.613 224.433 167.525C225.391 166.983 228.138 166.17 227.885 164.876C227.663 163.743 225.192 162.155 224.326 161.37C221.319 158.647 218.186 156.07 215.285 153.23C209.93 147.988 204.614 142.202 200.319 136.051C198.229 133.058 197.163 129.73 195.943 126.328C194.866 123.324 193.871 119.627 195.618 116.656C196.428 115.28 197.544 114.721 199.107 114.826C200.4 114.912 200.342 115.177 200.854 113.806C201.406 112.331 201.855 110.619 203.335 109.765C204.869 108.88 205.913 109.823 207.155 110.709C208.584 108.648 210.336 105.081 213.216 104.884C216.223 104.678 217.931 108.39 218.97 110.623C222.04 117.225 226.036 123.393 230.333 129.272C234.99 135.645 239.752 142.129 244.883 148.13C245.97 149.4 247.203 151.254 248.734 152.025C250.304 152.816 251.607 152.073 252.935 151.163C256.063 149.019 259.105 146.817 262.362 144.854C265.969 142.68 269.677 140.688 273.356 138.64C274.979 137.736 276.519 136.648 278.192 135.836C279.75 135.08 281.447 134.705 283.042 134.043C277.184 132.298 271.014 134.584 265.47 136.398C262.593 137.339 259.583 138.318 256.511 138.065C253.854 137.847 251.443 136.425 249.341 134.872C245.542 132.066 245.243 127.85 246.482 123.589C247.908 118.684 250.088 113.967 251.736 109.13C252.485 106.929 253.001 104.592 251.296 102.691C249.769 100.99 247.794 100.78 245.711 101.45C240.66 103.074 236.179 104.599 230.765 104.445C226.531 104.325 221.147 103.124 218.295 99.6864C216.732 97.8021 216.672 95.2112 216.666 92.8739C216.658 90.104 216.833 87.3182 217.221 84.5761C217.913 79.6831 219.709 74.7837 217.457 70.0329C216.929 68.9188 215.459 66.3236 214.004 66.168ZM169.995 127.271L169.995 127.287L169.996 127.283C169.997 127.247 169.997 127.247 169.995 127.271ZM345.2 104.304C343.877 102.474 340.255 98.2137 337.49 99.1459C337.007 99.3088 336.658 99.79 336.339 100.148C336.114 100.441 335.89 100.735 335.668 101.031C335.53 101.419 335.283 101.534 334.925 101.374C333.955 102.717 332.587 103.73 332.029 105.378C331.477 107.011 329.995 108.595 329.121 110.093C328.445 111.252 326.921 114.345 327.038 115.794V119.491C327.175 120.929 329.864 123.5 330.809 124.472C333.157 126.887 335.707 127.196 339.187 126.888C342.134 126.627 345.952 125.645 347.947 123.304C349.862 121.058 349.835 117.577 349.552 114.81C349.156 110.947 347.46 107.428 345.2 104.304ZM336.131 104.917C336.671 103.915 337.851 103.668 338.889 103.787C339.926 103.905 341.116 103.992 342.067 104.454C342.945 104.882 343.389 105.63 344.484 105.378C344.05 106.125 344.827 106.556 344.939 107.229C345.083 108.093 344.804 108.867 344.233 109.523C343.05 110.881 341.283 110.855 339.64 110.987C338.25 111.099 336.541 111.329 335.724 112.63C335.198 113.469 335.675 114.074 335.429 114.917C335.247 115.538 334.488 115.894 334.156 116.427C333.044 114.791 333.083 111.287 333.761 109.538C334.082 108.712 334.687 107.636 335.168 106.91C335.325 106.672 335.696 106.389 335.794 106.193C335.965 105.854 335.945 105.263 336.131 104.917Z" fill="#FF5678"/>
<path fill-rule="evenodd" clip-rule="evenodd" d="M206.479 323.112C204.467 322.325 201.986 322.693 199.877 322.73C197.228 322.778 194.573 322.979 191.932 323.186C186.861 323.583 181.815 323.415 176.74 323.889C174.22 324.124 171.698 324.341 169.176 324.556C166.968 324.744 164.405 325.329 162.2 324.908C161.29 324.734 158.834 323.878 159.289 322.546C159.641 321.519 162.406 320.885 163.306 320.593C165.425 319.905 167.613 319.411 169.756 318.798C170.856 318.483 171.951 318.143 173.11 318.253C174.093 318.346 175.129 319.079 176.125 318.995C177.598 318.87 178.357 317.022 179.438 316.206C181.158 314.908 182.434 315.602 183.753 317.033C184.728 318.09 185.657 319.691 187.257 319.786C189.293 319.906 189.689 318.162 188.791 316.683C187.963 315.321 185.71 313.924 185.59 312.226C185.513 311.152 187.231 308.28 188.22 307.871C189.883 307.185 192.233 309.003 193.737 309.561C196.362 310.535 199.042 311.398 201.701 312.278C203.519 312.88 206.217 312.933 206.561 315.062C206.99 317.728 206.467 320.435 206.479 323.112ZM310.538 282.133C310.01 280.962 309.455 280.297 310.511 279.21C311.102 278.603 311.936 278.304 312.518 277.674C313.391 276.727 314.761 274.139 312.887 273.487C311.097 272.863 309.588 275.354 308.147 275.901C306.319 276.595 305.185 275.431 304.924 273.685C304.588 271.441 304.957 269.097 304.689 266.825C304.427 264.598 303.649 262.749 303.051 260.616C302.646 259.171 302.151 257.715 303.988 257.394C305.673 257.1 307.627 257.8 309.336 257.894C312 258.04 314.697 258.174 317.339 258.573C320.29 259.019 320.236 262.034 320.977 264.499C322.773 270.474 325.181 276.336 326.302 282.496C326.786 285.152 325.504 286.971 324.013 289.06C322.145 291.675 320.202 294.283 318.086 296.705C316.674 298.323 315.082 299.83 313.025 300.573C310.695 301.416 309.805 300.48 310.342 298.185C311.052 295.156 312.123 292.23 311.997 289.074C311.951 287.925 311.616 286.691 312.445 285.729C313.02 285.062 314.006 284.837 314.756 284.432C315.993 283.762 317.91 281.608 315.499 281.144C313.862 280.829 312.123 281.929 310.538 282.133ZM254.88 163.46C253.409 165.101 251.811 166.671 250.416 168.376C249.617 169.353 249.05 170.528 248.192 171.455C246.313 173.484 244.441 171.236 242.777 169.921C236.232 164.751 230.074 159.148 223.839 153.615C220.868 150.978 217.707 148.547 214.784 145.86C211.822 143.139 209.357 139.953 206.582 137.053C205.25 135.661 203.655 134.279 202.832 132.501C202.13 130.984 201.975 129.334 201.176 127.834C199.791 125.237 197.252 122.221 197.835 119.08C199.549 120.876 202.405 127.312 205.396 124.294C207.531 122.139 205.35 118.955 205.445 116.443C207.472 117.302 206.946 120.788 209.107 121.405C210.276 121.739 211.275 120.681 211.821 119.754C212.763 118.151 212.417 116.473 211.989 114.773C211.698 113.614 209.836 109.792 211.677 109.321C213.273 108.912 214.61 111.845 215.139 112.884C216.108 114.789 216.858 116.76 217.923 118.624C219.758 121.839 221.872 124.909 223.887 128.013C228.038 134.405 232.771 140.404 237.639 146.263C242.84 152.52 248.469 158.421 254.88 163.46ZM208.774 183.79C208.983 189.42 213.825 193.69 218.014 196.82C223.367 200.821 228.306 205.369 234.69 207.646C237.148 208.522 240.218 208.27 241.203 211.034C241.587 212.115 241.238 212.512 240.821 213.6C240.169 215.302 239.776 217.148 239.466 218.94C238.413 225.035 239.437 231.242 243.102 236.317C245.051 239.015 247.54 241.308 250.115 243.399C252.682 245.485 255.111 247.918 257.942 249.644C263.979 253.324 270.687 255.437 277.649 256.454C281.27 256.983 284.905 257.454 288.562 257.641C290.459 257.738 292.358 257.755 294.256 257.672C295.104 257.635 298.256 256.919 298.869 257.405C299.34 257.779 299.55 260.041 299.645 260.665C299.845 261.985 300.003 263.286 300.276 264.595C300.823 267.221 301.562 270.192 300.754 272.841C300.52 273.607 300.331 274.232 299.621 274.489C299.171 274.652 298.373 274.365 297.918 274.318C296.889 274.213 295.917 274.172 294.882 274.281C291.484 274.64 288.148 275.508 284.714 275.272C277.393 274.768 270.065 274.253 262.811 273.108C259.283 272.551 255.897 271.498 252.427 270.684C249.12 269.909 245.815 269.125 242.728 267.668C236.68 264.814 231.091 261.037 226.098 256.614C220.768 251.891 217.24 246.292 213.906 240.045C210.977 234.557 208.507 229.003 208.635 222.676C208.716 218.672 209.291 213.712 206.974 210.181C205.916 208.568 203.781 207.073 201.793 207.926C198.183 209.474 201.593 212.54 202.97 214.219C204.953 216.639 204.686 220.323 204.892 223.281C205.135 226.773 205.92 229.835 206.686 233.212C207.435 236.516 205.923 240.437 205.774 243.808C205.612 247.464 205.719 251.123 205.759 254.78C205.841 262.054 205.503 269.309 205.528 276.581C205.541 280.353 205.444 284.144 205.683 287.911C205.901 291.345 206.605 294.631 207.221 298.003C207.826 301.313 208.707 305.277 208.504 308.642C200.233 305.496 192.183 301.78 183.784 298.97C186.404 296.688 186.52 293.463 186.732 290.244C187.01 285.999 187.709 281.791 188.014 277.547C188.617 269.164 188.447 260.346 187.734 251.973C186.967 242.984 185.609 234.025 185.329 224.997C185.195 220.649 185.531 216.289 186.24 211.998C186.838 208.382 187.356 203.833 189.243 200.63C191.045 197.569 194.359 195.625 197.125 193.54C201.169 190.491 204.914 187.063 208.774 183.79ZM208.273 66.2121C207.237 67.6111 206.067 68.9025 204.829 70.1248C203.552 71.386 203.008 71.1074 201.479 70.4513C198.44 69.1462 198.498 67.6367 200.195 65.0197C204.13 58.9501 205.623 51.7219 209.787 45.7763C213.89 39.9184 219.857 35.1853 226.122 31.8074C232.846 28.1826 240.132 27.0292 247.71 27.1373C251.582 27.1927 255.48 27.4598 259.328 27.8934C263.072 28.3149 266.402 29.5426 270.026 30.4695C271.85 30.9359 273.732 31.323 275.505 31.964C277.062 32.5262 278.461 33.3944 280.033 33.9198C283.475 35.0689 286.939 36.3533 290.044 38.2327C293.08 40.0706 295.815 42.0307 298.573 44.287C301.429 46.6236 303.909 49.3393 306.997 51.3908C309.808 53.2592 312.044 55.7755 314.593 57.9648C317.257 60.252 319.713 63.0548 321.711 65.945C323.665 68.7712 324.409 72.4281 325.589 75.6153C326.962 79.3248 328.325 83.2905 328.843 87.2235C329.807 94.5526 327.643 103.119 324.89 109.901C322.168 116.609 317.756 122.206 312.492 127.118C309.926 129.513 307.126 131.687 303.988 133.288C301.305 134.658 297.805 137.122 294.884 135.4C293.701 134.704 292.741 133.893 291.374 133.579C289.879 133.237 288.415 133.377 287.208 132.282C286.183 131.351 285.693 130.228 284.346 129.666C282.75 129 280.862 128.878 279.152 128.884C275.313 128.896 271.473 129.857 267.809 130.921C264.452 131.897 261.642 133.368 258.076 132.477C255.425 131.814 251.174 130.053 250.603 127.017C250.092 124.303 252.063 120.795 253.055 118.366C254.427 115.011 255.669 111.709 256.531 108.181C257.214 105.386 258.286 100.913 256.358 98.3581C254.464 95.8475 250.085 95.8778 247.364 96.5092C245.581 96.9229 243.942 97.7564 242.158 98.1763C240.341 98.6045 238.461 98.8195 236.607 99.0293C230.182 99.7555 221.042 98.1139 221.384 89.9102C221.689 82.5986 225.721 75.2694 223.359 67.9489C222.397 64.9651 220.431 61.5143 217.158 60.7267C214.562 60.1019 211.053 60.7569 208.763 62.1139C206.925 63.203 205.103 65.484 208.273 66.2121ZM337.288 98.8698C343.764 100.132 348.047 106.954 349.234 113.002C349.771 115.743 349.961 119.008 348.921 121.66C347.722 124.717 344.333 125.993 341.343 126.634C337.925 127.368 334.896 127.081 332.186 124.713C330.994 123.671 329.985 122.458 329.129 121.133C328.254 119.778 327.036 118.79 327.916 117.275C330.098 113.522 331.96 109.834 333.397 105.705C334.039 103.862 334.608 102.062 335.034 100.164C335.372 98.6567 335.535 97.7371 337.288 98.8698ZM280.57 139.816C281.823 141.022 283.262 141.983 284.88 142.631C286.654 143.341 287.193 143 287.105 145.051C287.007 147.316 286.991 149.128 288.024 151.235C288.507 152.222 290.294 153.553 289.956 154.662C289.472 156.255 284.511 157.866 283.064 158.422C279.602 159.755 275.562 159.782 272.294 157.899C268.498 155.712 268.162 151.747 269.592 147.909C269.745 147.5 270.3 146.808 270.163 146.361C269.913 145.541 268.881 145.66 268.29 145.973C267.005 146.652 266.468 148.718 266.191 150.008C265.452 153.452 266.809 157.183 269.389 159.556C270.7 160.762 272.34 161.567 274.013 162.148C274.962 162.478 275.958 162.738 276.961 162.839C277.771 162.921 278.793 162.666 279.567 162.896C280.93 163.302 280.991 164.982 281.332 166.21C281.941 168.406 282.195 170.782 282.275 173.053C282.404 176.726 281.966 181.406 279.852 184.52C274.918 191.786 265.376 194.308 257.927 198.047C253.967 200.035 250.295 202.532 246.769 205.202C246.421 205.465 245.9 205.982 245.481 206.188C244.068 206.882 245.302 206.63 244.398 206.17C243.701 205.817 243.105 205.049 242.385 204.649C240.727 203.727 238.865 203.229 237.179 202.358C233.258 200.332 229.79 197.818 226.31 195.135C222.745 192.385 219.134 189.875 215.882 186.745C214.51 185.425 212.966 184.338 211.574 183.075C210.173 181.802 211.967 181.274 213.153 180.338C217.192 177.15 221.181 173.862 225.494 171.044C226.933 170.104 228.202 168.837 229.703 168.006C231.271 167.138 232.201 167.916 233.436 169.019C234.785 170.225 236.072 171.406 237.574 172.438C239.557 173.801 241.863 174.457 243.857 175.754C242.577 177.093 239.455 177.541 239.002 179.57C238.543 181.625 241.607 183.23 243.039 184.024C245.567 185.426 248.356 186.277 251.174 186.885C253.518 187.391 256.994 186.629 258.873 188.398C259.408 187.265 259.91 186.674 259.029 185.591C258.148 184.51 256.578 184.324 255.336 183.908C251.979 182.784 248.673 181.287 245.426 179.883C245.857 178.875 246.934 178.185 247.756 177.529C248.928 176.592 249.913 175.553 250.867 174.388C252.689 172.164 254.321 169.793 256.056 167.505C256.808 166.512 257.494 165.521 258.867 166.07C260.079 166.556 261.263 167.814 262.428 168.465C265.063 169.939 267.369 171.355 270.269 172.292C271.438 172.67 276.224 173.746 274.951 170.823C274.573 169.957 273.312 169.6 272.536 169.221C271.1 168.52 269.67 167.806 268.287 167.006C265.446 165.363 262.941 163.24 260.283 161.329C257.352 159.221 254.37 157.175 251.617 154.832C254.356 153.019 257.394 151.692 260.227 150.033C263.089 148.357 265.973 146.843 268.934 145.354C271.292 144.168 273.688 142.904 275.838 141.372C276.693 140.763 279.632 138.231 280.57 139.816ZM194.451 80.8529C194.812 80.9436 195.169 81.0463 195.522 81.1612C193.121 84.8293 195.772 89.3706 195.02 93.34C192.804 92.03 192.513 86.9349 189.148 87.8769C185.523 88.8915 187.327 93.3499 186.229 95.9002C184.516 94.4038 182.516 95.8023 181.809 97.5773C181.044 99.5008 182.105 101.276 181.748 103.18C181.379 105.15 180.278 103.857 179.667 102.696C178.889 101.215 178.209 99.213 178.496 97.5195C178.845 95.4593 180.229 93.5441 181.086 91.6731C181.938 89.8139 182.745 87.9167 183.978 86.2673C186.313 83.1439 190.369 80.3378 194.451 80.8529ZM171.232 124.842C172.799 120.933 175.119 117.353 176.601 113.412C177.035 112.26 177.277 110.423 178.423 109.713C179.176 109.247 180.179 109.527 181.009 109.276C181.837 109.026 182.71 108.43 183.304 107.815C184.391 106.69 184.743 105.147 186.024 104.167C187.678 102.903 188.956 102.418 189.742 100.306C190.36 98.6476 190.361 98.4041 192.218 98.7743C194.245 99.1786 195.891 98.6836 197.289 97.1015C199.657 94.4229 199.919 90.6491 198.757 87.4156C198.213 85.9036 197.268 84.1445 198.053 82.5612C198.783 81.0904 200.555 80.0347 201.678 78.8624C204.516 75.8996 206.737 72.4321 209.398 69.3235C210.035 68.5797 210.686 67.8376 211.177 66.9849C211.489 66.4434 211.673 65.512 212.396 65.3586C213.64 65.0948 215.376 67.2442 216.002 68.0272C220.583 73.7566 217.305 81.5601 216.748 88.0192C216.464 91.3083 215.825 95.2519 217.285 98.349C218.661 101.267 222.142 102.724 225.076 103.537C229.034 104.633 233.284 104.585 237.311 103.919C239.421 103.571 241.445 102.976 243.442 102.222C245.484 101.45 247.609 100.123 249.691 101.523C252.379 103.331 251.548 106.956 250.958 109.599C249.994 113.916 248.311 117.943 246.821 122.091C245.57 125.574 244.558 129.944 247.187 133.061C249.814 136.174 254.17 138.122 258.224 137.961C266.629 137.626 274.301 131.364 282.89 133.925C281.276 134.592 279.57 134.984 277.994 135.747C276.09 136.668 274.328 137.892 272.48 138.916C268.933 140.883 265.373 142.821 261.907 144.927C258.774 146.831 255.813 148.916 252.823 151.025C249.098 153.653 247.136 150.742 244.746 147.903C239.529 141.706 234.562 135.144 229.822 128.577C225.701 122.867 221.876 116.906 218.895 110.528C217.829 108.246 216.033 104.374 212.913 104.825C210.143 105.224 208.527 108.564 207.095 110.608C206.096 109.893 205.239 108.936 203.89 109.33C202.771 109.656 201.997 110.803 201.502 111.782C201.162 112.454 200.929 114.721 200.36 115.062C199.955 115.305 198.407 114.783 197.717 114.943C195.356 115.488 194.601 118.521 194.625 120.627C194.658 123.528 195.871 126.432 196.866 129.119C199.095 135.143 202.913 139.851 207.123 144.611C211.395 149.441 215.867 153.819 220.685 158.106C221.874 159.164 223.052 160.233 224.211 161.324C225.162 162.218 226.667 163.148 227.411 164.198C228.788 166.142 225.105 167.024 223.734 167.735C217.836 170.796 212.401 174.826 207.207 178.936C201.851 183.175 196.465 187.43 191.318 191.921C186.283 196.314 181.527 200.997 176.225 205.082C170.778 209.28 165.07 213.155 159.473 217.149C153.869 221.147 148.417 225.353 142.821 229.356C137.352 233.268 131.481 236.621 125.728 240.095C122.719 241.912 119.694 243.703 116.671 245.496C114.226 246.947 111.573 249.201 108.674 249.385C106.063 249.55 103.586 250.51 102.025 247.673C100.841 245.519 101.331 242.556 102.369 240.464C103.635 237.91 105.616 235.562 107.207 233.199C109.037 230.481 110.735 227.685 112.541 224.954C114.273 222.335 116.198 219.917 118.13 217.449C120.089 214.947 121.575 212.126 123.32 209.477C127.051 203.813 130.888 198.251 134.425 192.46C142.538 179.179 149.804 165.468 156.747 151.552C157.359 150.325 171.631 125.06 171.232 124.842ZM182.654 206.496C178.294 221.556 180.809 236.87 181.703 252.19C182.155 259.937 182.223 267.731 182.424 275.488C182.521 279.259 182.515 283.032 182.358 286.801C182.279 288.697 182.14 290.587 182.005 292.479C181.886 294.153 182.335 296.003 182.124 297.618C181.853 299.686 177.744 300.092 179.007 302.746C179.854 304.527 182.819 304.799 184.408 305.549C183.702 306.367 182.597 307.59 181.418 307.667C180.357 307.736 179.538 306.817 178.586 306.469C177.742 306.16 176.58 305.86 176.046 306.846C175.488 307.877 176.657 309.024 177.12 309.823C175.547 310.127 174.46 309.189 173.041 309.275C171.548 309.365 171.481 310.833 170.5 311.682C169.378 312.653 167.419 312.862 166.037 313.271C164.428 313.746 162.811 314.335 161.346 315.16C158.726 316.635 156.477 319.421 155.509 322.272C154.506 325.228 156.072 327.785 158.405 329.599C159.275 330.274 160.521 331.06 161.674 330.695C162.992 330.279 163.198 329.207 164.803 329.287C166.246 329.358 167.615 329.934 169.064 330.008C171.195 330.116 173.324 329.728 175.458 329.81C184.066 330.14 192.676 330.214 201.27 329.387C203.493 329.173 205.673 328.998 207.865 328.928C209.569 328.874 209.712 327.603 210.001 326.009C210.698 322.157 209.156 318.365 209.92 314.623C209.869 314.87 211.075 314.227 211.221 314.105C212.107 313.36 212.403 312.301 212.666 311.201C213.369 308.272 213.362 305.287 213.145 302.3C212.651 295.519 211.388 288.801 211.492 281.985C211.544 278.549 211.44 275.121 211.439 271.687C211.438 268.532 211.152 265.419 211.126 262.286C211.067 255.417 210.344 248.625 210.142 241.764C211.573 243.154 212.332 245.094 213.24 246.829C214.358 248.963 215.605 251.075 216.97 253.061C219.789 257.162 223.572 260.499 227.49 263.525C234.967 269.299 243.09 273.77 252.251 276.219C262.169 278.869 272.198 280.659 282.422 281.665C284.787 281.897 287.179 282.023 289.55 281.793C291.102 281.642 293.626 280.389 295.101 281.025C296.777 281.748 297.115 283.486 299.313 282.999C300.151 282.812 300.759 282.252 301.493 281.875C302.574 281.32 302.617 281.703 303.648 281.774C304.798 281.853 305.487 281.279 306.49 282.204C307.341 282.99 307.258 283.54 306.481 284.275C305.388 285.309 303.639 285.482 302.545 286.561C301.482 287.611 301.672 288.902 303.316 288.917C304.97 288.933 306.439 287.757 308.055 287.603C307.711 292.381 306.273 297.718 307.868 302.405C308.608 304.58 310.196 305.981 312.563 305.966C316.526 305.94 320.002 302.298 322.388 299.461C323.707 297.892 324.776 296.13 326.05 294.523C327.352 292.88 328.749 291.228 329.495 289.241C330.288 287.127 330.056 285.005 329.613 282.835C329.064 280.149 328.554 277.436 327.891 274.775C326.604 269.616 324.017 264.907 322.711 259.763C322.216 257.817 322.223 255.534 320.976 253.865C319.655 252.098 317.601 251.985 315.564 252.098C313.042 252.238 310.523 252.516 308.014 252.802C306.43 252.982 302.959 254.123 301.67 253.15C301.226 252.815 301.226 251.938 300.707 251.635C300.206 251.343 299.398 251.552 298.852 251.593C296.143 251.794 293.411 252.038 290.698 252.117C280.611 252.412 269.968 250.841 260.962 246.158C256.783 243.986 253.6 240.565 250.241 237.334C246.938 234.157 244.06 230.738 243.171 226.126C242.36 221.915 242.667 216.88 244.014 212.804C245.327 208.834 249.986 206.43 253.377 204.472C258.079 201.758 263.071 199.508 268.136 197.559C268.941 197.25 269.918 196.856 270.803 197.014C271.887 197.208 272.615 198.147 273.601 198.561C274.774 199.054 276.213 199.056 277.45 199.344C278.65 199.623 279.819 200.006 281.041 200.191C284.89 200.771 290.298 200.308 293.478 197.851C298.677 193.837 295.536 188.154 293.866 183.268C295.631 183.208 297.102 183.621 298.787 182.866C300.466 182.114 301.779 180.781 302.545 179.113C303.938 176.077 303.133 172.588 302.722 169.422C302.536 167.991 302.324 166.571 301.778 165.226C301.355 164.185 300.659 163.192 300.403 162.091C300.12 160.878 300.487 160.808 301.499 160.228C303.06 159.334 304.183 158.305 305.138 156.736C307.009 153.662 307.056 150.307 305.523 147.073C304.902 145.764 303.421 143.965 303.59 142.436C303.735 141.121 305.224 140.097 306.101 139.236C308.81 136.577 311.69 134.122 314.693 131.802C316.097 130.718 317.643 129.734 318.919 128.502C319.854 127.6 320.804 125.637 322.082 125.163C323.362 124.688 324.214 126.116 325.105 126.881C326.495 128.074 327.826 129.447 329.34 130.481C332.056 132.336 335.424 131.989 338.49 131.397C341.694 130.777 344.666 129.687 347.397 127.889C348.483 127.174 349.75 125.722 351.086 125.606C352.514 125.482 354.064 126.9 355.084 127.751C357.747 129.973 358.547 133.425 360.098 136.411C361.83 139.745 362.566 143.205 362.094 146.953C361.67 150.325 360.371 152.873 358.437 155.596C358.038 156.16 357.101 157.224 357.786 157.847C358.623 158.61 360.338 157.081 360.9 156.587C366.483 151.68 369.656 144.287 367.844 136.886C366.871 132.912 364.968 129.235 362.758 125.816C361.818 124.361 360.901 122.907 359.267 122.165C357.407 121.321 355.299 121.421 353.311 121.219C354.686 114.496 355.116 107.18 350.892 101.32C347.651 96.8236 341.014 92.8892 335.754 96.5355C335.969 91.5787 336.677 86.8717 335.356 81.9915C334.765 79.8044 333.954 77.6762 332.958 75.6408C331.983 73.646 330.635 71.9547 329.847 69.8781C326.736 61.6881 320.769 54.372 314.394 48.4939C307.951 42.552 301.629 35.3032 293.513 31.5858C285.045 27.707 276.422 24.2215 267.241 22.4592C257.712 20.6298 247.918 20.2543 238.318 21.9863C229.903 23.5047 222.116 28.61 215.748 34.114C208.482 40.3945 203.792 47.9661 200.081 56.7366C199.266 58.6631 198.48 60.6062 197.48 62.4474C196.371 64.4904 194.946 66.3902 194.131 68.5824C193.403 70.5374 193.281 72.6581 194.577 74.4048C195.487 75.633 197.356 75.9103 198.153 77.0336C198.555 77.6001 198.514 78.1389 197.63 78.3078C196.718 78.4818 196.283 77.4648 195.626 77.0568C193.993 76.0408 191.688 76.9064 190.037 77.4834C186.121 78.8514 183.056 81.3083 180.713 84.7142C178.47 87.9735 176.981 91.6763 175.5 95.3213C174.566 97.6209 173.677 99.9053 173.162 102.342C172.969 103.258 172.699 105.743 174.148 104.654C174.736 104.213 175.576 107.562 175.418 108.096C174.867 109.951 172.901 111.69 171.744 113.192C169.024 116.723 167.202 120.678 165.283 124.671C161.128 133.319 156.499 141.714 152.053 150.212C142.998 167.517 133.102 184.158 122.722 200.699C117.579 208.894 112.277 216.949 106.78 224.912C104.354 228.425 101.921 231.941 99.5479 235.49C97.5313 238.506 95.5411 241.865 96.06 245.629C96.535 249.076 98.5845 251.845 101.898 252.972C103.674 253.576 105.782 254.272 107.683 254.087C109.761 253.884 111.594 252.495 113.327 251.452C121.287 246.658 129.249 241.868 137.214 237.083C146.123 231.732 154.27 225.378 162.77 219.427C167.094 216.4 171.554 213.671 176.06 210.931C177.074 210.314 181.678 205.892 182.654 206.496Z" fill="black"/>
<path fill-rule="evenodd" clip-rule="evenodd" d="M259.79 221.731C261.966 224.933 264.254 227.941 267.317 230.37C270.543 232.929 273.918 235.002 277.52 236.988C283.874 240.489 292.39 243.59 299.77 242.003C301.868 241.552 305.226 239.717 303.401 237.097C302.485 235.78 300.517 236.124 299.125 236.196C296.881 236.313 294.919 236.441 292.77 235.687C288.82 234.3 284.843 232.993 280.987 231.361C277.251 229.78 273.975 227.612 270.548 225.482C267.333 223.484 264.882 221.093 262.058 218.678C261.285 218.017 259.955 216.859 259.224 218.146C258.695 219.075 259.5 220.822 259.79 221.731Z" fill="black"/>
<path fill-rule="evenodd" clip-rule="evenodd" d="M171.864 67.9641C172.107 69.3509 172.765 72.1097 174.717 71.7329C177.208 71.2523 175.981 66.3801 176.019 64.7259C176.184 57.5188 178.536 50.5886 182.018 44.3399C183.749 41.2334 185.882 38.3605 187.455 35.1651C187.761 34.5442 188.689 33.0043 188.015 32.3307C187.206 31.5218 185.654 32.7425 185.084 33.3198C182.879 35.552 181.123 38.8985 179.421 41.5252C177.148 45.0321 175.14 48.7358 173.699 52.6678C171.959 57.4177 170.981 62.9264 171.864 67.9641Z" fill="black"/>
<path fill-rule="evenodd" clip-rule="evenodd" d="M167.204 44.9166C166.971 46.1664 165.833 49.567 167.863 49.8686C170.164 50.2105 170.879 44.5443 171.518 43.0431C171.855 42.2518 173.65 38.7664 172.714 38.0077C170.766 36.4282 167.666 43.9108 167.204 44.9166Z" fill="black"/>
<path fill-rule="evenodd" clip-rule="evenodd" d="M275.511 213.565C277.696 215.554 280.232 215.437 282.989 215.248C284.389 215.152 287.631 214.323 285.378 212.588C284.201 211.681 274.966 211.058 275.511 213.565Z" fill="black"/>
<path fill-rule="evenodd" clip-rule="evenodd" d="M105.308 249.978C105.152 249.669 103.842 248.188 103.559 248.787C103.292 249.352 104.962 249.961 105.308 249.978Z" fill="black"/>
<path fill-rule="evenodd" clip-rule="evenodd" d="M279.043 140.037C279.312 140.591 280.434 140.108 280.82 140.191C280.295 139.068 279.671 139.308 279.043 140.037Z" fill="black"/>
<path fill-rule="evenodd" clip-rule="evenodd" d="M194.619 81.2539C194.736 81.6977 194.853 82.1418 194.969 82.5859C195.148 82.2532 195.328 81.9208 195.508 81.588C195.212 81.4769 194.915 81.3653 194.619 81.2539Z" fill="black"/>
<path fill-rule="evenodd" clip-rule="evenodd" d="M192.474 165.143C189.671 165.426 186.858 165.569 184.043 165.655C181.668 165.728 180.692 165.279 180.389 162.812C180.029 159.886 179.906 156.935 179.547 154.009C179.384 152.679 178.093 150.022 179.648 149.311C180.95 148.715 182.983 149.569 184.347 149.669C185.867 149.781 188.161 149.318 189.504 150.218C190.941 151.181 190.628 154.552 190.873 156.134C191.339 159.15 191.902 162.146 192.474 165.143ZM193.811 150.936C196.352 151.128 198.901 151.279 201.435 151.55C202.562 151.67 204.845 152.228 205.795 151.408C208.026 149.484 199.688 148.808 198.742 148.656C197.148 148.401 194.42 148.74 193.398 147.236C192.387 145.749 192.642 143.25 192.381 141.523C191.988 138.924 191.538 136.329 191.275 133.713C191.187 132.834 191.313 129.93 190.384 129.498C188.249 128.507 188.92 138.728 188.955 139.495C189.015 140.814 189.081 142.14 189.265 143.448C189.369 144.185 189.733 145.182 189.508 145.923C188.864 148.047 185.207 146.822 183.541 146.653C181.673 146.462 178.79 147.185 178.172 144.883C177.395 141.99 177.508 138.704 177.22 135.728C177.141 134.905 176.933 128.757 175.415 129.233C173.719 129.766 174.381 134.903 174.396 136.226C174.414 137.718 174.408 139.212 174.509 140.702C174.6 142.041 174.978 143.681 174.698 145.008C174.208 147.333 171.449 146.096 170.648 147.946C169.888 149.704 174.035 148.326 174.81 148.93C175.966 149.832 175.688 153.599 175.853 154.918C176.216 157.816 176.912 160.826 177.139 163.715C177.317 165.995 175.482 165.693 173.615 165.528C172.014 165.386 170.255 165.006 168.65 165.219C167.36 165.391 165.559 166.577 167.436 167.368C170.371 168.603 176.348 166.079 177.823 169.831C178.101 170.539 179.395 178.748 181.022 174.696C181.701 173.002 180.037 170.344 181.812 169.047C182.427 168.596 183.344 168.676 184.058 168.626C185.816 168.504 187.586 168.462 189.347 168.425C191.104 168.389 192.682 168.036 193.361 169.958C193.889 171.456 193.831 173.133 194.253 174.665C194.569 175.815 195.609 177.826 196.688 175.946C197.396 174.712 196.854 172.554 196.714 171.211C196.644 170.539 196.243 169.148 196.753 168.583C197.301 167.977 198.768 168.305 199.461 168.36C201.462 168.518 205.188 169.481 206.719 167.667C208 166.15 205.337 166.121 204.29 166.019C203.211 165.913 202.132 165.815 201.053 165.702C199.867 165.577 198.295 165.744 197.178 165.372C195.303 164.748 195.436 162.199 195.313 160.546C195.072 157.317 194.345 154.127 193.811 150.936Z" fill="black"/>
<path fill-rule="evenodd" clip-rule="evenodd" d="M160.85 157.833C161.001 159.697 161.203 161.787 161.806 163.559C162.262 164.899 163.182 165.306 163.496 163.6C163.695 162.519 162.373 156.428 160.85 157.833Z" fill="black"/>
<path fill-rule="evenodd" clip-rule="evenodd" d="M279.297 145.556C280.045 145.02 283.589 142.196 281.028 142.084C279.72 142.027 276.902 144.177 276.822 145.369C276.801 145.67 277.446 145.826 277.41 146.117C277.344 146.672 276.522 146.935 276.258 147.375C275.674 148.348 275.916 150.269 276.67 151.193C278.389 153.301 280.297 149.733 278.966 149.032C279.263 149.189 283.242 147.167 283.391 146.711C284.209 144.21 279.498 146.566 279.297 145.556Z" fill="black"/>
<path fill-rule="evenodd" clip-rule="evenodd" d="M273.051 155.398C273.96 155.427 275.786 155.364 276.466 154.715C277.732 153.51 275.263 153.35 274.541 152.789C273.529 152.002 273.33 149.443 271.742 151.027C270.166 152.597 271.552 154.424 273.051 155.398Z" fill="black"/>
<path fill-rule="evenodd" clip-rule="evenodd" d="M286.152 148.755C284.509 148.514 280.854 152.054 282.628 152.289C283.802 152.445 285.896 149.701 286.152 148.755Z" fill="black"/>
</svg>
