<svg width="485" height="341" viewBox="0 0 455 341" fill="none" xmlns="http://www.w3.org/2000/svg">
<path fill-rule="evenodd" clip-rule="evenodd" d="M290.151 280.826C274.395 284.267 258.638 287.708 242.881 291.15C240.663 291.634 238.445 292.118 236.227 292.603C236.887 272.286 237.547 251.969 238.207 231.652C238.302 228.718 238.397 225.783 238.493 222.849C234.842 226.042 231.009 229.104 227.516 232.467C223.044 236.772 218.744 241.228 214.141 245.404C206.224 252.589 197.906 259.557 188.737 265.105C178.775 271.132 167.282 275.01 155.714 276.349C151.453 276.842 147.595 276.722 143.374 276.282C139.701 275.9 136.028 275.517 132.355 275.135C130.876 274.981 129.396 274.827 127.916 274.673C127.559 274.636 126.395 274.72 126.11 274.479C125.592 274.043 125.322 272.063 125.118 271.433C124.268 268.814 123.424 266.194 122.584 263.572C120.303 256.445 118.054 249.308 115.882 242.147C114.022 236.017 112.066 229.861 110.677 223.602C110.515 222.869 110.158 221.908 110.218 221.15C110.306 220.042 109.781 220.275 111.242 220.259C114.679 220.222 118.313 221.056 121.753 221.3C125.295 221.551 128.845 221.7 132.396 221.736C151.201 221.927 172.845 219.891 188.079 207.724C193.187 203.645 198.318 198.929 202.276 193.685C207.857 186.29 210.899 176.444 211.64 167.32C212.473 157.067 210.743 146.493 208.223 136.568C207.713 134.559 207.828 133.808 208.266 131.706C208.63 129.962 208.993 128.217 209.357 126.472C209.458 125.988 209.567 123.952 209.967 123.654C210.669 123.132 214.051 123.705 214.872 123.716L225.061 123.843C231.623 123.925 238.185 124.007 244.747 124.089C248.155 124.131 251.559 124.664 254.945 125.015C262.205 125.769 269.464 126.523 276.724 127.277C278.178 127.428 279.633 127.58 281.088 127.73C280.156 135.986 279.224 144.242 278.291 152.497C277.596 158.654 280.02 164.757 281.312 170.775C284.223 184.332 287.059 198.087 288.138 211.932C289.154 224.968 289.144 238.143 289.475 251.21C289.725 261.081 289.952 270.953 290.151 280.826Z" fill="#F64E70"/>
<path fill-rule="evenodd" clip-rule="evenodd" d="M188.845 31.6654C188.845 30.9075 189.071 30.3767 189.497 29.7487C190.48 30.6022 192.02 34.8348 193.659 32.1022C193.984 31.5588 194 29.5346 195.117 30.1662C195.643 30.4627 195.499 31.8913 195.462 32.3755C195.329 34.0992 194.546 36.5041 192.32 36.4059C190.049 36.3059 188.784 33.551 188.845 31.6654Z" fill="black"/>
<path fill-rule="evenodd" clip-rule="evenodd" d="M190.215 27.8788C186.438 28.5749 187.946 25.1797 190.712 24.898C191.738 24.7935 193.506 24.8483 193.263 26.3614C193.048 27.6997 191.213 27.6946 190.215 27.8788Z" fill="black"/>
<path fill-rule="evenodd" clip-rule="evenodd" d="M179.751 39.0675C178.562 39.1802 176.602 37.5048 178.577 37.3006C179.489 37.2066 181.404 38.9101 179.751 39.0675Z" fill="black"/>
<path fill-rule="evenodd" clip-rule="evenodd" d="M387.121 58.9201C386.211 59.6161 383.485 57.3773 382.593 56.9817C379.122 55.4407 375.131 54.5886 371.401 53.9242C364.016 52.6092 356.447 51.8688 348.949 51.6329C344.375 51.4888 340.046 51.6485 335.522 52.1358C334.396 52.2568 326.777 53.5273 326.591 51.4403C326.263 47.7757 346.417 47.9497 348.336 47.956C357.062 47.9858 364.943 48.9536 373.419 50.8533C375.712 51.3673 389.811 56.8625 387.121 58.9201Z" fill="black"/>
<path fill-rule="evenodd" clip-rule="evenodd" d="M146.178 119.467C141.589 120.824 136.353 120.639 132.047 118.453C131.308 118.078 129.51 117.28 130.462 116.342C131.487 115.334 134.357 117.045 135.474 117.264C140.898 118.327 147.775 116.22 151.616 112.268C153.523 110.307 154.599 107.829 155.054 105.159C155.312 103.637 155.445 102.026 155.352 100.483C155.254 98.8475 154.585 97.0897 155.032 95.4622C157.033 96.6477 157.056 99.7693 157.199 101.785C157.379 104.326 157.363 106.77 156.649 109.247C155.178 114.345 151.232 117.974 146.178 119.467Z" fill="black"/>
<path fill-rule="evenodd" clip-rule="evenodd" d="M64.1822 255.277C64.328 255.667 64.4653 256.031 64.6256 256.459C65.2442 255.323 65.2442 255.323 64.1822 255.277ZM69.9504 284.943C72.246 286.002 74.8033 283.155 76.0252 281.57C78.0622 278.926 78.9684 275.879 79.7713 272.696C80.6599 269.174 81.6861 265.693 82.5116 262.155C82.8789 260.577 83.2303 258.995 83.6429 257.428C83.9848 256.132 85.2583 253.822 84.7221 252.476C83.8159 250.199 79.3642 249.573 79.6676 246.52C79.9461 243.714 84.8448 246.71 86.0209 247.305C88.7078 248.666 87.3107 246.949 86.0128 245.955C85.0291 245.201 80.4542 241.937 82.849 240.291C84.4033 239.222 87.7839 242.476 89.0719 243.076C90.4246 243.705 90.9173 243.54 92.0137 242.431C92.794 241.642 93.9538 240.643 94.5566 239.738C96.0461 237.5 94.0507 233.114 93.7441 230.55C93.6758 229.98 94.1055 226.853 93.7066 226.483C93.1821 225.996 90.9368 226.339 90.1117 226.215C87.1526 225.77 84.2334 225.435 81.2699 225.065C79.3121 224.821 73.4891 223.348 72.3366 225.376C71.4218 226.985 71.7148 230.074 71.7143 231.794C71.713 235.415 71.7016 238.958 71.3588 242.591C70.6098 250.524 70.0478 258.453 69.3259 266.386C68.9754 270.237 68.2503 274.043 67.8867 277.894C67.6611 280.28 67.3047 283.721 69.9504 284.943ZM114.524 226.356C116.698 231.788 118.496 237.384 120.376 242.92C121.246 245.48 122.048 248.065 122.93 250.62C123.775 253.067 125.134 255.272 125.831 257.775C127.147 262.501 128.255 267.196 129.813 271.842C130.038 272.512 129.906 273.993 130.309 274.466C130.804 275.047 132.995 274.961 133.771 275.058C136.946 275.458 140.153 275.765 143.356 275.632C140.359 271.856 136.997 268.389 133.551 265.012C130.534 262.056 126.459 258.698 125.967 254.193C125.314 248.206 131.565 249.409 135.454 249.772C140.879 250.278 147.029 252.476 152.459 251.258C148.695 246.172 142.991 242.38 138.267 238.24C136.424 236.626 134.486 234.851 133.545 232.528C133.065 231.344 132.827 229.979 133.152 228.722C133.547 227.196 134.424 226.918 135.695 226.197C128.158 226.197 120.535 225.928 113.354 223.342C113.069 224.544 114.121 225.347 114.524 226.356ZM148.223 274.333C149.54 276.122 151.911 275.634 153.863 275.522C156.729 275.356 159.587 275.008 162.4 274.434C165.24 273.854 168.089 273.078 170.798 272.038C171.368 271.82 173.142 271.32 173.35 270.635C173.54 270.015 172.446 268.743 172.207 268.269C171.447 266.757 171.071 264.061 172.787 262.982C174.204 262.092 176.297 262.984 177.726 263.405C179.844 264.028 182.369 265.288 184.519 264.33C187.263 263.107 189.979 261.35 192.559 259.811C187.899 255.58 183.323 251.266 178.545 247.166C174.168 243.41 168.896 239.087 166.161 233.913C165.131 231.965 164.464 229.203 165.727 227.173C166.86 225.353 169.144 225.289 171.07 225.456C176.789 225.951 182.425 227.371 188.051 228.43C189.945 228.787 202.132 231.611 202.164 228.539C202.171 227.876 200.909 226.366 200.586 225.84C199.854 224.645 199.106 223.462 198.315 222.305C196.472 219.608 194.469 217.027 192.481 214.436C191.479 213.128 190.198 210.404 188.278 210.694C187.403 210.827 186.526 211.8 185.82 212.304C184.603 213.172 183.342 213.976 182.047 214.723C176.812 217.74 171.031 219.272 165.206 220.695C163.885 221.017 157.578 221.667 156.958 222.968C156.649 223.618 157.361 225.154 157.38 225.857C157.408 226.916 157.174 228.015 156.592 228.913C154.902 231.515 151.206 231.379 148.485 231.302C145.028 231.203 141.488 231.033 138.047 231.455C141.471 234.62 145.023 237.642 148.597 240.634C151.115 242.743 153.921 244.741 155.9 247.396C157.595 249.668 158.855 253.536 156.692 255.984C154.376 258.604 149.155 257.444 146.218 256.997C142.793 256.477 139.399 255.839 136.004 255.16C134.854 254.93 133.666 254.664 132.49 254.602C131.084 254.529 130.569 254.449 131.543 255.753C133.963 258.992 137.603 261.321 140.151 264.484C141.352 265.974 142.751 267.16 144.013 268.59C145.585 270.371 146.819 272.424 148.223 274.333ZM195.332 256.631C196.986 258.312 198.853 255.922 200.194 254.826C202.204 253.184 204.167 251.483 206.207 249.877C210.071 246.834 214.094 244.012 217.727 240.683C218.872 239.634 220.754 238.459 221.102 236.852C221.545 234.802 220.48 232.968 221.569 230.906C223.633 227.001 227.901 230.196 230.685 227.948C232.115 226.793 233.122 225.118 234.25 223.688C235.591 221.987 237.304 220.336 238.076 218.286C238.879 216.155 238.985 215.135 237.489 213.333C235.878 211.393 233.923 209.62 232.631 207.436C231.74 205.931 231.013 203.719 232.413 202.263C233.543 201.086 235.5 201.403 236.963 201.493C239.093 201.625 241.212 201.824 243.306 202.246C244.961 202.58 248.121 203.454 249.709 202.546C253.456 200.406 246.72 194.892 245.228 193.257C241.893 189.602 238.398 186.099 234.931 182.571C231.725 179.309 228.488 176.044 225.477 172.598C223.237 170.033 220.611 166.413 221.812 162.792C222.786 159.858 226.065 159.765 228.674 159.969C232.496 160.268 236.298 160.893 240.102 161.347C242.939 161.685 248.396 162.749 250.815 160.497C253.316 158.169 247.977 151.254 246.597 149.182C243.681 144.804 240.32 140.741 236.839 136.805C235.148 134.893 233.425 133.011 231.701 131.129C230.204 129.495 228.831 127.436 227.112 126.033C225.231 124.498 222.421 124.678 220.116 124.447C217.692 124.204 215.114 123.845 212.676 123.854C210.457 123.861 211.006 125.997 210.912 127.849C210.889 128.293 210.291 132.227 210.965 132.289C211.039 131.413 211.112 130.537 211.186 129.661C213.081 130.438 214.488 132.112 215.957 133.471C217.424 134.828 219.415 136.21 220.034 138.205C221.78 143.837 214.811 141.839 211.89 141.267C212.547 147.665 214.184 153.883 215.087 160.237C215.465 162.9 215.311 165.31 215.016 167.957C214.848 169.467 214.868 170.99 214.683 172.498C214.537 173.695 213.98 175.063 214.203 176.265C214.61 178.467 217.391 180.777 218.626 182.64C220.266 185.111 221.713 187.789 222.471 190.673C223.841 195.88 221.508 199.624 216.056 200.125C213.597 200.351 210.876 199.971 208.441 199.624C206.347 199.326 203.673 197.774 201.763 199.178C200.981 199.752 200.442 200.769 199.757 201.471C198.762 202.489 197.645 203.397 196.547 204.299C195.512 205.149 192.682 206.661 192.961 207.964C193.171 208.946 194.877 210.35 195.455 211.077C196.213 212.03 196.965 212.988 197.697 213.962C199.555 216.436 201.327 218.99 202.93 221.636C204.87 224.839 207.593 230.56 204.312 233.879C202.412 235.801 199.256 235.462 196.833 235.084C193.53 234.568 190.248 233.904 187.004 233.105C183.756 232.305 180.48 231.747 177.193 231.137C174.386 230.617 171.12 229.623 168.314 230.652C176.515 240.193 186.537 247.691 195.332 256.631ZM243.175 212.5C244.229 211.268 245.309 209.899 246.243 208.567C247.102 207.34 247.032 206.805 245.583 206.423C244.68 206.186 243.679 206.418 242.758 206.311C241.8 206.199 240.844 205.891 239.906 205.679C238.852 205.442 237.67 205.082 236.582 205.084C235.356 205.087 235.235 204.976 235.851 206.078C236.696 207.587 238.331 208.907 239.496 210.165C240.229 210.956 241.983 213.894 243.175 212.5ZM241.819 229.801C242.374 231.02 246.372 230.126 247.015 229.287C248.421 227.452 244.824 223.181 243.879 221.635C242.452 222.58 241.959 223.829 241.874 225.478C241.815 226.62 241.346 228.762 241.819 229.801ZM240.314 290.396C242.703 290.632 245.832 289.255 248.02 288.499C251.05 287.453 254.2 286.706 257.326 286.009C263.604 284.609 270.094 284.413 276.39 283.07C272.389 277.867 267.551 273.385 263.485 268.237C262.01 266.371 259.843 263.696 260.527 261.136C261.197 258.626 263.792 259.181 265.718 259.76C268.303 260.536 270.8 261.616 273.327 262.557C274.521 263.002 279.858 265.563 280.845 263.902C281.51 262.781 277.722 258.606 277.17 257.884C275.106 255.188 272.867 252.633 270.61 250.098C266.4 245.369 261.62 240.529 258.363 235.072C255.922 230.981 255.105 224.523 261.697 224.781C264.419 224.888 267.192 225.731 269.847 226.286C272.3 226.798 275.926 227.931 278.429 227.298C281.065 226.632 278.034 222.701 277.204 221.404C275.451 218.663 273.392 216.102 271.461 213.485C269.384 210.669 267.168 207.914 265.226 205.004C264.017 203.193 262.057 200.034 263.155 197.745C264.416 195.118 268.745 196.742 270.864 197.14C274.879 197.896 278.818 199.153 282.942 199.153C282.901 197.084 280.78 195.266 279.56 193.798C277.728 191.595 275.842 189.461 273.839 187.41C272.43 185.968 270.89 183.619 269.242 182.508C267.556 181.371 266.56 184.965 265.897 186.301C261.066 196.043 255.785 205.594 249.27 214.333C247.959 216.092 246.034 217.513 247.134 219.759C248.279 222.095 249.788 224.14 250.229 226.777C250.554 228.724 250.383 231.431 248.883 232.911C247.428 234.345 245.292 234.02 243.496 234.58C241.589 235.176 242.127 236.866 242.11 238.557C242.081 241.516 242.044 244.473 242.062 247.432C242.078 250.061 242.114 252.69 242.146 255.32C242.179 258.1 242.857 260.071 243.616 262.689C244.012 264.052 244.147 265.462 243.71 266.832C243.335 268.009 242.717 268.235 241.993 269.068C240.582 270.689 241.033 273.771 240.86 275.833C240.736 277.311 238.67 290.234 240.314 290.396ZM246.192 322.01C246.792 322.764 248.948 322.523 249.789 322.578C251.387 322.683 252.987 322.683 254.586 322.77C257.995 322.954 261.361 323.428 264.781 323.489C267.592 323.538 270.504 323.674 273.206 323.866C274.537 323.961 276.033 323.385 277.328 323.655C278.604 323.922 279.091 324.294 280.473 324.183C283.914 323.908 287.435 324.254 290.882 324.339C294.071 324.417 297.288 324.176 300.482 324.134C304.075 324.086 307.676 324.218 311.269 324.254C315.114 324.294 319.038 324.066 322.834 324.796C322.483 323.182 322.507 321.28 321.202 320.073C319.866 318.837 317.65 318.556 315.93 318.354C313.426 318.06 310.943 317.993 308.444 317.887C306.883 317.821 305.38 317.292 303.828 317.115C301.602 316.862 299.207 317.008 296.964 316.972C296.194 316.96 295.683 316.675 294.977 316.568C294.149 316.441 293.339 316.653 292.435 316.433C290.562 315.976 288.652 315.497 286.834 314.887C285.724 314.514 285.77 314.198 284.86 315.063C284.291 315.605 283.941 316.631 283.46 317.269C282.665 318.322 281.243 319.581 280.018 318.314C278.72 316.971 280.111 315.464 279.823 314.07C279.6 312.994 277.554 312.049 276.532 312.455C275.118 313.017 274.699 315.936 273.185 316.266C271.281 316.681 271.795 313.802 272.053 312.73C272.728 309.924 272.487 309.833 270.245 307.965C268.536 306.541 268.058 305.985 265.938 307.049C263.801 308.122 261.468 308.588 259.086 308.844C256.273 309.148 253.649 308.831 250.897 308.268C249.601 308.004 247.076 307.01 246.23 308.37C245.276 309.902 246.257 313.655 246.292 315.428C246.318 316.749 246.398 318.109 246.272 319.428C246.207 320.109 245.707 321.4 246.192 322.01ZM280.698 281.987C282.676 281.815 284.614 281.291 286.585 281.052C287.304 280.966 288.847 280.992 289.441 280.484C290.168 279.862 289.827 279.923 289.679 279.019C288.974 274.722 288.704 270.56 288.808 266.193C288.886 262.925 289.524 257.841 287.576 254.999C285.28 251.649 281.79 249.171 279.461 245.811C278.201 243.994 276.443 239.116 280.431 239.246C282.018 239.298 283.713 240.303 285.253 240.676C287.434 241.203 287.567 240.674 287.374 238.699C286.921 234.065 287.056 229.411 286.583 224.775C286.096 220.009 285.575 215.239 285.039 210.478C284.778 208.164 284.66 205.715 284.21 203.436C283.773 201.22 281.621 202.412 279.737 202.322C274.748 202.083 269.898 199.026 264.885 199.505C269.065 207.342 276.193 213.295 280.249 221.237C281.65 223.981 282.955 228.274 279.499 230.107C275.647 232.149 269.768 229.561 265.805 228.903C264.418 228.674 258.909 227.065 258.653 229.209C258.515 230.363 260.757 233.063 261.318 233.897C262.595 235.799 264.066 237.562 265.448 239.387C268.207 243.031 271.49 246.202 274.352 249.769C276.849 252.88 279.912 255.928 281.924 259.379C283.812 262.618 284.176 268.455 278.866 267.817C273.43 267.164 268.702 262.926 263.162 262.802C265.993 266.532 269.226 269.927 272.369 273.391C273.881 275.057 275.366 276.746 276.8 278.481C277.718 279.592 278.978 282.136 280.698 281.987ZM288.117 248.183C287.997 246.631 288.373 245.765 286.963 244.915C286.055 244.367 283.909 243.516 282.914 243.892C283.29 244.329 287.593 249.47 288.052 249.056C288.167 248.776 288.188 248.485 288.117 248.183ZM280.616 176.836C280.357 173.853 279.757 170.903 279.627 167.908C279.54 165.883 279.829 163.19 278.456 161.501C276.796 164.606 275.68 167.964 274.021 171.07C273.311 172.399 272.52 173.683 271.785 174.998C271.284 175.897 269.813 177.827 269.929 178.899C270.126 180.729 273.766 183.352 274.945 184.658C277.456 187.443 279.915 190.276 282.481 193.011C282.135 187.59 281.085 182.245 280.616 176.836ZM280.688 128.357C279.994 127.384 275.159 127.844 274.116 127.751C270.831 127.461 267.263 127.202 264.084 126.32C269.13 132.561 273.665 139.316 276.63 146.809C277.755 143.748 278.496 140.561 279.183 137.377C279.532 135.758 279.833 134.133 280.093 132.496C280.211 131.757 281.136 128.987 280.688 128.357ZM265.277 174.023C266.629 174.698 270.729 164.613 270.91 163.496C268.966 163.939 261.226 164.302 260.772 166.753C260.559 167.898 261.882 169.28 262.461 170.108C263.168 171.122 264.159 173.466 265.277 174.023ZM252.995 163.759C250.133 167.343 244.79 166.619 240.794 166.109C238.088 165.764 235.407 165.299 232.708 164.902C230.046 164.509 226.817 163.783 224.234 164.879C228.422 170.762 233.812 175.627 238.902 180.7C241.511 183.302 244.031 185.989 246.54 188.687C249 191.334 250.963 194.665 253.573 197.118C255.788 193.074 257.884 188.969 260.02 184.884C260.916 183.168 262.071 181.623 262.991 179.927C264.006 178.058 264.162 177.198 262.867 175.504C260.941 172.983 258.233 169.568 258.62 166.182C259.072 162.228 263.772 161.794 266.849 160.941C268.396 160.513 270.171 160.188 271.585 159.408C273.381 158.415 273.462 156.778 274.056 155.001C274.775 152.85 275.435 151.453 274.676 149.191C274.044 147.308 273.098 145.44 272.224 143.661C270.388 139.921 268.092 136.479 265.656 133.107C264.056 130.892 262.168 126.471 259.306 125.879C257.275 125.459 254.712 125.632 252.628 125.517C250.2 125.383 247.768 125.307 245.338 125.202C240.301 124.984 234.908 124.508 229.896 125.172C235.798 131.55 241.764 137.768 247.015 144.714C250.396 149.187 257.609 157.979 252.995 163.759ZM275.583 115.511C272.846 110.438 270.304 105.422 266.598 100.992C263.393 97.1605 260.485 93.1629 257.158 89.4217C250.18 81.5723 241.122 75.7716 232.678 69.6729C230.768 68.2927 228.323 67.5406 226.227 66.337C223.633 64.8481 220.854 63.6055 218.046 62.5762C212.954 60.7097 207.106 59.7569 201.683 60.1359C195.689 60.5544 191.167 62.6709 187.446 67.3431C183.798 71.9226 183.232 76.978 183.134 82.7339C183.087 85.4689 183.053 88.2199 183.08 90.9554C183.106 93.6628 183.458 95.3741 185.117 97.4598C186.483 99.176 189.36 100.043 191.323 100.836C193.994 101.915 196.494 103.118 198.986 104.57C200.064 105.198 202.624 107.562 203.953 107.311C205.913 106.941 206.393 103.466 206.587 101.924C207.317 96.1557 207.239 90.2567 206.885 84.46C206.705 81.4917 205.323 77.0318 206.106 74.0282C206.431 72.7802 207.173 72.3378 208.09 73.4396C209.223 74.8026 209.502 78.0014 209.795 79.6451C210.827 85.4345 210.758 91.2547 210.792 97.1089C210.805 99.435 212.105 100.641 212.957 102.714C214.046 105.364 214.937 108.129 215.474 110.945C215.786 112.579 216.006 114.244 215.983 115.912C215.97 116.827 215.518 118.284 215.87 119.153C216.553 120.841 220.793 119.897 222.214 119.866C228.549 119.725 234.865 119.388 241.21 119.306C254.054 119.141 266.989 121.048 279.568 123.469C278.265 120.804 276.992 118.123 275.583 115.511ZM270.063 88.4277C271.069 88.5921 274.45 90.4392 275.034 89.2682C275.533 88.2674 273.065 84.6833 272.697 83.7287C271.841 81.5121 271.633 79.0374 271.129 76.7235C270.812 75.2654 270.782 72.3836 269.992 71.0844C269.11 69.6317 267.053 70.3612 265.593 70.4047C263.102 70.479 260.587 70.4776 258.095 70.469C255.561 70.46 253.028 70.3938 250.493 70.4015C247.903 70.4092 245.343 69.9795 242.773 69.9795C243.061 70.9101 244.267 71.3643 245.024 71.8021C246.19 72.4773 247.172 73.2793 248.194 74.1605C250.59 76.224 252.979 77.8737 254.988 80.3357C256.803 82.5613 259.339 84.9414 261.592 86.731C262.799 87.6887 263.624 87.6117 265.087 87.599C266.836 87.5841 268.356 88.1488 270.063 88.4277ZM276.269 83.4688C276.898 85.3956 276.957 85.9616 278.998 85.8249C281.621 85.6483 284.25 85.4839 286.877 85.2937C292.872 84.8603 298.871 83.9651 304.866 83.6631C309.977 83.4054 315.496 82.7886 320.575 83.3207C322.946 83.5689 325.472 83.0911 327.89 83.1858C330.808 83.3003 333.754 83.2881 336.546 84.1861C338.873 84.935 340.817 85.3399 342.48 87.2771C344.155 89.2279 345.299 91.6867 346.413 93.9821C348.572 98.4325 350.262 104.243 354.06 107.614C355.019 108.465 356.658 109.91 358.054 109.75C360.35 109.486 359.646 106.446 359.444 104.904C358.764 99.7081 356.723 95.2174 355.2 90.2549C354.744 88.7714 353.842 84.8531 356.2 84.307C357.898 83.9139 360.564 87.6452 361.539 88.6473C363.686 90.8544 365.788 92.9958 368.189 94.9389C370.17 96.5428 372.163 98.3152 374.902 97.971C373.591 94.4376 372.145 91.0165 369.997 87.8988C368.154 85.2226 365.048 82.814 363.896 79.7357C363.029 77.4177 363.797 74.2551 366.495 76.2946C368.838 78.0657 370.867 80.2324 373.262 81.9717C376.405 84.2535 379.973 86.145 383.699 87.2735C384.932 87.6466 387.119 88.3697 388.301 87.479C390.063 86.1509 388.265 83.3796 387.276 82.1588C378 70.7099 362.573 66.6041 348.497 65.741C344.828 65.516 341.012 65.8773 337.328 65.9294C333.833 65.9779 330.589 66.4058 327.135 66.9166C319.965 67.9767 312.779 68.8388 305.64 69.898C303.729 70.1815 301.461 70.743 299.558 70.6692C298.774 70.6388 298.367 70.4287 297.586 70.6379C296.918 70.8168 296.438 71.1741 295.695 71.2941C291.464 71.976 287.158 72.2418 282.871 72.2966C280.809 72.3224 278.726 72.2835 276.679 72.0136C275.474 71.8547 274.24 71.3538 273.9 72.7848C273.644 73.8639 274.499 75.9079 274.792 76.9472C275.392 79.0714 275.597 81.4111 276.269 83.4688ZM199.575 46.4605C200.296 46.4877 201.484 46.5959 201.719 45.6953C202.16 43.9985 199.891 45.0341 199.471 43.9659C199.002 42.7768 200.6 42.4689 201.305 42.2769C202.741 41.8847 202.372 41.9685 202.411 40.4778C202.447 39.1025 202.891 37.85 203.449 36.6043C204.225 34.8736 204.265 34.961 202.525 34.7622C199.596 34.428 198.957 31.8428 197.874 29.4777C197.206 28.0182 196.465 26.5945 196.05 25.0355C195.796 24.0895 195.832 22.5861 194.907 22.0531C193.658 21.3331 190.75 22.0776 189.434 22.2506C187.234 22.5395 184.922 22.8673 182.818 23.605C181.014 24.2376 180.328 25.7047 178.701 25.9647C177.65 26.1322 171.324 25.736 172.155 27.6736C172.672 28.8809 175.115 28.1912 176.016 28.155C177.165 28.1093 178.567 27.9381 179.707 28.1627C180.846 28.3877 180.953 28.8139 181.397 29.9473C180.33 29.8943 176.337 29.2979 175.465 30.0827C174.691 30.7787 175.262 31.5417 176.041 31.7975C177.56 32.297 179.613 31.3279 181.207 31.7446C182.341 32.0412 182.262 32.0815 182.73 33.2203C182.973 33.8144 183.251 34.4221 183.354 35.0611C183.94 38.6701 180.629 35.8685 179.252 35.0692C176.734 33.607 174.003 33.8801 174.493 37.3931C174.654 38.5555 175.281 39.5726 176.086 40.4108C177.221 41.5922 177.515 41.815 177.573 43.6C177.624 45.136 177.459 46.7793 178.003 48.2542C178.602 49.8785 179.88 51.2628 180.878 52.6493C182.076 54.3148 183.316 55.96 184.471 57.6553C184.97 58.3858 185.681 60.2242 186.64 60.4679C187.544 60.6965 188.944 59.2475 189.693 58.8327C191.506 57.8274 193.499 57.1731 195.363 56.2733C193.801 54.8849 192.41 53.31 190.88 51.9153C189.685 50.8263 189.067 50.6189 189.461 48.7799C190.345 44.6547 196.554 46.3473 199.575 46.4605ZM176.085 133.149C171.148 137.927 163.806 140.915 157.128 142.117C150.132 143.377 142.154 144.31 135.339 141.874C128.351 139.376 121.817 135.784 115.901 131.315C115.174 130.765 107.025 122.813 106.369 123.44C108.79 127.063 111.33 130.596 113.896 134.117C115.157 135.846 119.516 141.798 117.009 143.952C115.349 145.378 112.525 143.08 111.162 142.158C107.88 139.94 104.225 138.745 100.236 138.745C102.079 142.127 104.881 145.121 106.379 148.692C107.087 150.38 106.727 150.258 105.127 149.799C103.125 149.225 100.855 148.561 98.7665 148.467C97.7951 148.423 95.8228 148.85 95.6584 150.118C95.5013 151.331 98.0777 153.619 98.7968 154.488C101.432 157.673 104.118 160.695 107.376 163.263C113.63 168.192 121.054 171.37 128.61 173.731C136.33 176.142 144.58 176.869 152.472 174.928C156.382 173.966 159.969 172.661 163.471 170.714C165.056 169.833 166.724 169.434 168.248 168.398C169.832 167.322 171.438 166.248 173.055 165.224C176.385 163.114 178.449 160.992 180.773 157.823C181.708 156.548 182.99 155.603 183.881 154.348C184.862 152.965 185.872 151.556 186.787 150.101C191.007 143.388 195.142 136.173 197.602 128.606C198.87 124.704 199.731 120.691 200.796 116.732C201.162 115.37 202.513 112.75 202.231 111.367C201.959 110.032 199.846 109.491 198.8 108.924C195.746 107.273 192.682 105.807 189.702 104.051C185.586 101.624 186.315 106.6 186.048 109.472C185.255 118.013 182.384 127.051 176.085 133.149ZM210.905 136.413C211.773 137.157 213.971 137.619 215.082 137.28C213.987 135.649 212.298 134.579 210.878 133.266C210.723 134.168 210.037 135.67 210.905 136.413ZM205.604 194.443C207.603 194.589 209.69 195.189 211.672 195.205C213.44 195.219 215.677 195.363 217.395 194.983C222.135 193.936 219.332 189.65 217.683 186.852C216.771 185.305 215.617 183.921 214.666 182.401C214.436 182.034 213.799 180.539 213.29 180.488C212.542 180.414 212.309 181.641 211.948 182.392C210.972 184.426 210.069 186.527 208.961 188.494C207.846 190.471 206.29 192.245 205.604 194.443ZM154.33 224.54C153.92 222.265 147.261 224.576 145.754 224.847C145.322 224.925 140.105 225.56 140.152 226.014C141.879 226.141 154.84 227.372 154.33 224.54ZM63.7724 275.331C62.752 275.775 62.7883 272.53 62.7412 272.1C62.6461 271.232 62.5265 269.67 62.9676 268.908C63.2914 268.349 63.3865 268.633 63.5604 268.486C64.9847 267.279 63.2647 266.763 62.9445 265.8C62.8458 265.505 62.8367 264.689 62.9839 264.443C63.4042 263.735 63.521 264.264 64.0205 263.968C64.3557 263.769 65.0354 264.26 64.8389 263.354C64.6767 262.606 64.1043 263.065 63.8176 262.831C62.7276 261.94 62.8385 260.772 63.0134 259.349C63.1791 257.998 63.339 256.551 63.737 255.272C63.9413 254.615 64.2198 254.911 64.1976 254.135C64.1858 253.731 63.5704 253.331 63.55 252.822C63.5255 252.189 64.1125 251.174 64.1455 250.507C64.189 249.632 64.1972 248.871 64.0993 248.043C64.0396 247.536 63.9051 247.352 63.877 246.734C63.8512 246.153 63.9784 245.472 63.9906 244.866C64.0251 243.146 64.2547 241.417 64.5572 239.772C64.7347 239.514 64.8742 239.237 64.977 238.939C64.9063 238.631 64.7881 238.342 64.6228 238.072C64.5771 237.286 64.5921 236.518 64.6016 235.72C64.6192 234.24 64.3366 232.835 64.2501 231.376C64.2248 230.943 64.054 230.22 64.3552 229.82C64.5848 229.515 65.3877 229.59 65.4761 229.297C65.7297 228.457 64.9702 228.958 64.8058 228.533C64.674 228.192 64.741 227.743 64.7193 227.4C64.6582 226.473 65.9937 220.172 67.1503 220.991C66.6893 220.665 67.5937 218.495 67.8871 218.128C68.9776 216.763 69.6289 218.309 70.5133 219.269C71.751 220.613 72.8284 219.749 74.4361 219.445C76.4264 219.07 78.6138 219.203 80.6313 219.246C82.6996 219.291 84.7973 219.407 86.8574 219.589C89.0755 219.785 91.2239 220.455 93.4643 220.422C96.7847 220.372 100.149 220.449 103.466 220.331C104.13 220.307 105.737 220.376 106.016 219.532C106.12 219.215 105.521 218.55 105.431 218.2C105.257 217.529 105.245 216.648 105.541 215.991C106.435 214.008 108.297 215.627 109.608 216.347C111.583 217.432 113.631 218.356 115.812 218.943C124.515 221.282 134.781 221.152 143.668 220.047C152.691 218.925 161.612 216.21 170.409 213.986C178.442 211.956 185.857 207.453 192.023 201.944C198.308 196.329 203.269 188.54 206.374 180.721C209.833 172.011 207.316 163.241 207.228 154.331C207.185 149.888 206.196 145.552 205.925 141.123C205.662 136.827 206.03 132.796 207.319 128.592C207.648 127.521 208.11 126.445 208.349 125.349C208.571 124.334 208.179 123.52 208.309 122.563C208.589 120.515 210.855 120.722 211.846 119.2C212.743 117.821 211.818 115.675 211.501 114.196C210.949 111.629 210.262 109.092 209.63 106.544C208.978 108.061 208.368 109.575 207.974 111.183C207.873 111.595 207.864 112.323 207.582 112.688C207.378 112.953 206.863 112.919 206.702 113.163C206.158 113.986 206.221 114.812 206.126 115.87C205.943 117.924 205.611 119.955 205.273 121.987C204.137 128.814 203.272 135.542 200.589 141.986C195.642 153.862 188.961 164.912 179.081 173.336C174.603 177.153 168.909 179.527 163.49 181.539C157.025 183.938 150.876 185.238 143.937 184.615C137.388 184.028 130.842 181.995 124.843 179.36C118.935 176.765 113.387 174.48 108.342 170.298C102.951 165.83 97.5673 160.436 93.8592 154.456C92.5069 152.275 90.0995 147.776 90.6895 145.044C91.4463 141.542 96.8304 143.852 98.7751 144.577C97.1389 141.901 92.7592 137.135 94.9366 133.797C98.1152 128.926 106.434 133.859 109.841 135.665C108.086 132.096 105.402 129.098 103.5 125.616C102.558 123.89 99.9539 116.874 103.78 116.494C104.939 116.379 106.169 117.701 106.987 118.364C108.576 119.651 110.152 120.952 111.727 122.255C115.171 125.102 118.805 127.524 122.772 129.586C130.709 133.712 138.387 135.903 147.401 135.025C155.083 134.278 163.553 131.945 169.525 126.885C173.112 123.847 175.964 120.485 177.806 116.119C179.841 111.296 181.138 106 182.561 100.969C180.355 100.401 178.809 100.73 179.235 98.1074C179.745 94.9634 179.633 91.7823 179.651 88.5912C179.69 81.9763 179.812 75.2885 181.883 68.9407C182.252 67.8109 182.576 66.6467 183.211 65.6296C183.994 64.3753 184.721 64.1888 183.713 62.8212C181.773 60.1885 179.757 57.9379 178.318 54.9126C177.569 53.339 176.875 51.7976 175.952 50.3268C174.439 47.915 172.461 46.1454 170.52 44.056C168.291 41.6583 166.545 39.3964 165.399 36.3163C164.864 34.8786 164.135 33.4481 163.858 31.9293C163.528 30.1184 163.87 28.2659 164.027 26.4542C164.544 20.4438 166.564 15.5935 172.478 13.2452C177.283 11.3365 182.808 10.5146 187.846 11.9904C193.941 13.7764 196.83 19.1211 199.733 24.2933C200.552 25.7518 201.056 27.2951 201.799 28.7754C202.56 30.2928 203.349 30.2951 204.751 30.9109C207.53 32.1308 207.295 35.6497 206.088 37.9628C204.555 40.9021 204.866 44.3074 203.545 47.3757C202.191 50.5179 200.091 51.3932 196.889 52.0973C198.11 53.0664 199.223 54.3334 200.779 54.7477C202.668 55.2504 204.957 54.7708 206.912 54.7985C210.972 54.8555 215.077 55.4053 218.934 56.7022C222.723 57.9755 226.118 60.0132 229.64 61.8368C231.25 62.6704 232.751 63.8595 234.591 64.1014C236.376 64.3364 238.174 63.8967 239.969 64.1272C243.905 64.633 248.22 63.9954 252.234 63.908C256.557 63.8138 260.895 63.874 265.21 63.558C267.074 63.4217 268.915 63.2256 270.785 63.3881C272.484 63.5353 273.498 63.1355 274.967 64.2979C275.944 65.0704 276.723 66.9614 277.874 67.2191C279.101 67.4939 281.519 66.725 282.731 66.5425C286.805 65.9285 290.912 65.1166 294.961 64.3681C296.858 64.0171 298.647 63.3777 300.56 63.0476C302.535 62.7066 304.586 62.5957 306.537 62.1569C309.695 61.4469 313.104 61.1824 316.396 60.7287C320.252 60.1975 324.216 59.0772 328.103 58.9355C344.368 58.3423 362.6 57.3773 377.022 66.3895C380.409 68.5056 383.888 71.2076 386.497 74.2347C388.893 77.0155 391.836 80.6943 392.448 84.3998C392.994 87.7073 392.595 93.5016 388.169 93.5419C383.853 93.5813 379.419 91.0066 375.705 89.0997C377.291 92.8994 382.112 101.038 377.928 104.728C373.61 108.536 365.659 100.273 362.808 97.6206C363.371 101.681 367.395 116.435 359.78 116.664C352.348 116.887 348.036 107.731 345.388 102.296C343.99 99.4264 342.947 96.0551 340.677 93.7199C338.395 91.372 335.232 91.4499 332.143 91.1497C324.636 90.4202 317.169 90.3821 309.619 90.2014C300.062 89.9732 290.676 91.5468 281.107 90.6579C281.227 92.5018 280.527 95.8577 278.657 96.5637C275.903 97.6043 272.525 96.1086 269.706 96.1086C269.895 97.2361 271.501 98.4239 272.178 99.2747C273.391 100.8 274.434 102.436 275.41 104.121C277.316 107.411 279.344 110.707 280.697 114.273C281.377 116.067 281.959 117.918 282.449 119.772C282.731 120.839 282.726 122.433 283.298 123.376C284.007 124.548 285.097 123.871 285.997 124.79C287.293 126.115 285.94 126.813 285.532 127.981C285.089 129.245 285.645 131.386 285.476 132.775C285.223 134.861 284.955 136.962 284.609 139.034C283.975 142.823 282.632 146.327 281.733 150.025C280.88 153.533 283.189 157.243 283.951 160.636C284.835 164.575 285.349 168.56 286.257 172.492C287.217 176.642 287.662 180.917 288.323 185.121C288.969 189.229 289.899 193.287 290.531 197.398C291.734 205.232 292.498 213.209 293.446 221.075C293.943 225.198 294.325 229.375 294.362 233.53C294.396 237.421 294.946 241.22 295.026 245.104C295.111 249.22 295.16 253.339 295.337 257.452C295.513 261.521 295.008 265.572 294.823 269.634C294.736 271.57 294.67 273.51 294.699 275.448C294.723 277.084 295.172 278.998 294.766 280.6C293.964 283.765 289.506 285.666 286.708 286.587C283.287 287.714 279.675 288.491 276.173 289.323C274.467 289.729 272.739 290.074 271.004 290.328C270.33 290.427 269.548 290.387 268.918 290.674C267.969 291.105 268.156 290.888 268.106 291.967C268.024 293.709 268.535 295.618 268.801 297.326C269.045 298.899 268.734 301.485 269.342 302.895C270.034 304.498 274.913 305.811 276.106 304.724C276.948 303.956 277.189 302.507 278.181 301.861C279.609 300.93 280.266 302.234 280.259 303.635C280.253 304.69 279.454 305.963 280.415 306.735C281.247 307.403 283.003 307.053 283.807 306.503C285.147 305.585 287.928 299.908 288.608 304.737C288.768 305.875 288.277 307.2 289.242 308.063C290.147 308.872 292.328 308.836 293.468 308.981C295.289 309.211 296.884 309.288 298.722 309.249C300.774 309.205 302.712 309.686 304.729 309.777C307.872 309.917 311.026 310.343 314.24 310.405C317.521 310.469 321.097 311.325 323.621 313.55C326.518 316.104 325.922 319.261 325.369 322.682C325.004 324.945 327.892 327.388 324.977 329.367C323.808 330.16 321.865 329.993 320.52 330.005C318.222 330.026 315.949 329.759 313.649 329.887C296.89 330.819 280.068 330.124 263.313 329.572C259.399 329.443 255.333 329.622 251.452 329.15C249.723 328.939 248.007 328.638 246.275 328.453C244.792 328.295 243.022 328.556 241.607 328.075C238.101 326.883 241.852 323.258 242.132 321.188C242.675 317.169 242.445 312.911 242.471 308.861C242.499 304.556 242.471 300.251 242.471 295.945C240.607 296.075 235.376 297.455 233.915 295.856C232.707 294.534 234.763 291.774 234.864 290.187C235.274 283.718 235.136 277.242 235.624 270.767C236.128 264.09 236.066 257.471 236.276 250.793C236.499 243.659 237.006 236.551 237.006 229.407C231.791 234.924 226.81 240.983 221.011 245.901C218.527 248.008 215.821 249.83 213.227 251.795C210.305 254.008 207.583 256.47 204.678 258.704C199.272 262.86 192.843 265.29 187.132 268.985C181.359 272.721 175.199 275.797 168.552 277.646C161.287 279.668 153.582 280.34 146.064 279.952C142.457 279.766 138.868 279.303 135.316 278.656C133.835 278.385 132.369 278.033 130.888 277.768C128.792 277.393 127.771 277.743 125.809 278.127C123.231 278.631 122.59 274.868 121.825 273.059C120.416 269.722 119.806 266.077 118.559 262.664C116.378 256.696 114.368 250.796 112.438 244.727C112 243.35 111.709 240.962 110.066 240.768C108.956 240.637 107.046 241.873 105.959 242.215C104.068 242.808 102.276 243.075 100.307 243.124C98.6474 243.164 98.449 243.786 97.4115 244.966C96.4605 246.048 94.7432 246.668 95.0661 248.239C95.2572 249.169 96.2458 249.887 96.4306 250.938C97.0936 254.709 93.3053 251.449 91.9739 250.625C91.1673 252.402 97.2607 254.376 95.0403 256.893C93.9529 258.125 91.6859 256.253 90.604 255.775C88.0806 254.658 87.697 257.694 87.0249 259.661C85.7918 263.273 84.9662 267.062 84.021 270.757C83.1108 274.318 82.3703 277.956 80.9338 281.355C79.6536 284.385 77.4241 286.362 75.8318 289.098C75.0483 290.444 74.1829 291.414 72.4892 291.478C71.3434 291.521 69.224 291.071 68.1416 290.634C67.1195 290.222 66.0113 288.966 65.2967 288.178C64.3045 287.084 64.5006 286.026 63.6972 284.687C63.7321 285.36 63.882 285.985 63.9182 286.642C62.4518 285.488 63.9137 283.674 63.6474 282.212C63.5636 281.748 63.0858 281.36 63.0586 280.874C63.0469 280.675 63.4726 280.217 63.5011 279.94C63.5351 279.612 63.5618 278.657 63.4685 278.413C63.401 278.238 62.8367 277.346 62.849 277.508C62.8404 277.39 62.6411 277.203 62.748 276.814C62.9096 276.225 63.8471 276.12 63.7724 275.331Z" fill="black"/>
</svg>
